# Blender v2.83.10 OBJ File: ''
# www.blender.org
v -2.029642 0.980951 0.432998
v -0.478073 1.466733 0.182891
v -2.004673 2.501691 0.409834
v -0.318441 0.421277 0.418897
v -0.503042 -0.054007 0.187843
v -0.756853 1.482435 0.043838
v -2.283453 2.517393 -0.240682
v -0.792056 -1.559875 0.065244
v -2.054610 -0.539789 0.456163
v -2.318656 -0.524917 -0.140546
v -0.774454 -0.038720 0.054541
v -2.301054 0.996238 -0.190615
v 0.684090 -0.044201 -0.588702
v 0.240544 -3.204482 -0.461455
v 0.282184 0.121562 -0.451305
v -0.479985 4.101488 -0.166362
v -0.563267 -3.195322 -0.186662
v -0.528010 -1.574747 0.192795
v -0.521626 0.453083 -0.176513
v 0.642449 -3.209062 -0.598852
v 0.812162 -2.459412 -0.167624
v 0.843258 -3.240004 -0.022742
v 0.485370 0.089755 0.144103
v 0.931294 3.087992 0.036155
v 0.529388 3.414934 0.173552
v -0.078081 3.774546 -0.303759
v -0.078081 3.774546 -0.303759
v 0.642449 -3.875471 -0.598852
v 0.738959 -0.989621 -0.427916
v 2.840884 2.922121 -1.044643
v 0.719808 -2.445182 -0.432584
v 0.887276 -0.076006 0.006707
v 0.852651 0.450914 -0.140537
v 0.758111 0.465940 -0.423249
v 0.725731 3.120661 -0.578552
v 2.875909 3.370328 -0.958013
v 2.846842 3.374879 -1.043190
v 0.832407 -1.004249 -0.154080
v 2.882205 3.822963 -0.953800
v 2.869612 2.917693 -0.962225
v -0.362458 -3.892674 0.389448
v 0.039446 -3.230844 0.252051
v -0.362458 -3.226264 0.389448
v -0.161362 -3.199902 -0.324059
v 0.323825 3.447603 -0.441155
v 0.323825 3.447603 -0.441155
v 0.127483 3.741877 0.310949
v 0.127483 3.741877 0.310949
v -0.274423 4.068819 0.448345
v 0.083464 0.255516 0.281500
v -0.119720 0.287322 -0.313909
v 0.297326 -3.591251 1.518723
v 0.441352 -3.235424 0.114655
v 2.852798 3.827637 -1.041738
v 0.218900 -3.589663 1.656120
v 0.305916 -2.438726 1.548171
v 0.227490 -2.381273 1.685568
v 0.441352 -3.901833 0.114655
v 0.240544 -3.870891 -0.461455
v -0.161362 -3.866312 -0.324059
v -0.563267 -3.861732 -0.186662
v 0.931294 3.087992 0.036155
v -0.274423 4.068819 0.448345
v -0.479985 4.101488 -0.166362
v 0.529388 3.414934 0.173552
v 0.725731 3.120661 -0.578552
v -0.398607 3.132949 -0.145286
v -0.104383 3.813967 -0.203004
v -0.398607 4.053313 -0.102420
v 0.405205 3.399428 -0.377213
v 0.699428 3.160083 -0.477798
v 0.849916 3.136167 -0.027787
v 0.555691 3.375512 0.072797
v 0.849916 2.433877 0.015080
v 0.046104 3.790051 0.247006
v -0.248120 4.029397 0.347591
v 0.448010 3.463109 0.109610
v 0.153785 3.017740 0.115124
v 0.153785 3.702455 0.210194
v 0.003299 3.726371 -0.239817
v 0.297522 3.487025 -0.340401
v 0.555691 2.690798 -0.022272
v 0.699428 2.222143 -0.382728
v 0.405205 2.479064 -0.420080
v -0.248120 3.344683 0.252521
v -0.104383 2.876028 -0.107934
v 0.297522 2.549086 -0.245331
v 0.003299 2.806007 -0.282683
v 0.046104 3.087761 0.289873
v 0.448010 2.760819 0.152476
v 0.843258 -3.906413 -0.022742
v 0.039446 -3.897254 0.252051
vt 0.619908 0.875970
vt 0.672752 0.837614
vt 0.601521 0.818456
vt 0.812474 0.646593
vt 0.776890 0.656650
vt 0.828835 0.656278
vt 0.604894 0.833813
vt 0.662305 0.802101
vt 0.588846 0.811011
vt 0.701960 0.803701
vt 0.636705 0.792115
vt 0.629539 0.816801
vt 0.692730 0.896540
vt 0.638315 0.933550
vt 0.619806 0.876039
vt 0.828145 0.766570
vt 0.936245 0.751945
vt 0.822635 0.752005
vt 0.686994 0.668399
vt 0.776495 0.665147
vt 0.936236 0.667409
vt 0.880781 0.655907
vt 0.880406 0.663828
vt 0.811613 0.722876
vt 0.880412 0.712154
vt 0.828458 0.712306
vt 0.903190 0.625337
vt 0.877397 0.640842
vt 0.903995 0.646186
vt 0.822624 0.683089
vt 0.720074 0.668399
vt 0.709048 0.682984
vt 0.791613 0.624313
vt 0.791613 0.624313
vt 0.791613 0.624313
vt 0.925950 0.625612
vt 0.668997 0.358478
vt 0.632587 0.056985
vt 0.632587 0.450078
vt 0.827311 0.631017
vt 0.795092 0.624825
vt 0.795918 0.646324
vt 0.777985 0.640969
vt 0.687842 0.646462
vt 0.777595 0.630782
vt 0.686994 0.624313
vt 0.599049 0.030884
vt 0.605130 0.061283
vt 0.605130 0.030641
vt 0.767073 0.028377
vt 0.705408 0.267084
vt 0.741919 0.358311
vt 0.369217 0.291960
vt 0.362930 0.518358
vt 0.383142 0.518633
vt 0.620591 0.419753
vt 0.599230 0.061521
vt 0.601622 0.420518
vt 0.958927 0.711937
vt 0.936184 0.697674
vt 0.936167 0.712154
vt 0.856842 0.618083
vt 0.877612 0.603575
vt 0.856747 0.603575
vt 0.791613 0.624313
vt 0.791613 0.624313
vt 0.791613 0.624313
vt 0.791613 0.624313
vt 0.791613 0.624313
vt 0.811580 0.712154
vt 0.698021 0.697569
vt 0.686994 0.712154
vt 0.817102 0.697621
vt 0.817124 0.737440
vt 0.936232 0.722928
vt 0.936239 0.737437
vt 0.709024 0.752066
vt 0.698009 0.737444
vt 0.686994 0.722823
vt 0.857699 0.871416
vt 0.872085 0.823813
vt 0.857699 0.817483
vt 0.778430 0.056753
vt 0.778430 0.449539
vt 0.598868 0.000248
vt 0.605130 0.000000
vt 0.827691 0.640905
vt 0.705408 0.266879
vt 0.643912 0.028492
vt 0.936200 0.683193
vt 0.828146 0.668556
vt 0.776504 0.712459
vt 0.720040 0.766687
vt 0.674016 0.839129
vt 0.601297 0.818528
vt 0.638294 0.933485
vt 0.691249 0.895086
vt 0.684085 0.994323
vt 0.605926 0.986761
vt 0.602557 0.995198
vt -0.007239 0.915932
vt 0.042056 0.997939
vt 0.191709 0.915932
vt 0.416431 1.000310
vt 0.424578 0.888604
vt 0.400074 0.886785
vt 0.622223 0.992441
vt 0.659487 0.934078
vt 0.519764 0.926336
vt 0.791708 0.593336
vt 0.812478 0.578828
vt 0.791613 0.578828
vt 0.824275 0.587665
vt 0.845045 0.573157
vt 0.824180 0.573157
vt 0.857414 0.603575
vt 0.879118 0.582737
vt 0.856357 0.582737
vt 0.958961 0.682977
vt 0.936217 0.668713
vt 0.958995 0.667146
vt 0.937072 0.646724
vt 0.936251 0.766453
vt 0.959003 0.752179
vt 0.958991 0.723163
vt 0.741932 0.602185
vt 0.720245 0.581512
vt 0.719171 0.602185
vt 0.791613 0.624313
vt 0.791613 0.624313
vt 0.791613 0.624313
vt 0.791613 0.624313
vt 0.791613 0.624313
vt 0.791613 0.624313
vt 0.791613 0.624313
vt 0.791613 0.624313
vt 0.782715 0.624313
vt 0.759583 0.613814
vt 0.751280 0.624313
vt 0.710652 0.624313
vt 0.711034 0.605150
vt 0.709363 0.602185
vt 0.720548 0.602185
vt 0.719222 0.605150
vt 0.720166 0.621349
vt 0.721837 0.624313
vt 0.711978 0.621349
vt 0.824180 0.603575
vt 0.850471 0.588527
vt 0.826459 0.587665
vt 0.688283 0.624313
vt 0.688665 0.605150
vt 0.686994 0.602185
vt 0.698179 0.602185
vt 0.696853 0.605150
vt 0.697797 0.621349
vt 0.699468 0.624313
vt 0.689609 0.621349
vt 0.832826 0.613814
vt 0.847629 0.603575
vt 0.824180 0.603575
vt 0.699850 0.605150
vt 0.708038 0.605150
vt 0.708981 0.621349
vt 0.700793 0.621349
vt 0.735341 0.618099
vt 0.751280 0.607965
vt 0.742459 0.603521
vt 0.712972 0.618099
vt 0.728911 0.607965
vt 0.720089 0.603521
vt 0.724157 0.618099
vt 0.740095 0.607965
vt 0.731274 0.603521
vt 0.800260 0.603575
vt 0.815063 0.593336
vt 0.791613 0.593336
vt 0.686994 0.602185
vt 0.713284 0.587137
vt 0.689273 0.586275
vt 0.823048 0.624313
vt 0.799916 0.613814
vt 0.791613 0.624313
vt 0.800260 0.613814
vt 0.815063 0.603575
vt 0.791613 0.603575
vt 0.751280 0.603316
vt 0.777571 0.588267
vt 0.753559 0.587405
vt 0.782715 0.613814
vt 0.759583 0.603316
vt 0.751280 0.613814
vt 0.834650 0.669008
vt 0.816365 0.611425
vt 0.803689 0.603980
vt 0.834751 0.668939
vt 0.853159 0.726519
vt 0.851549 0.585084
vt 0.687877 0.646462
vt 0.673333 0.806514
vt 0.710465 0.796421
vt 0.711444 0.953952
vt 0.877026 0.631253
vt 0.926755 0.646462
vt 0.755716 -0.000000
vt 0.362930 0.291875
vt 0.958944 0.697457
vt 0.877707 0.618083
vt 0.860273 0.876614
vt 0.655238 -0.000000
vt 0.709745 0.952558
vt 0.683679 0.985917
vt -0.026905 0.996897
vt 0.432439 0.999346
vt 0.670701 0.994292
vt 0.812573 0.593336
vt 0.845140 0.587665
vt 0.880175 0.603575
vt 0.958978 0.668497
vt 0.959831 0.646462
vt 0.959010 0.766687
vt 0.958997 0.737671
vt 0.743006 0.581512
vt 0.791613 0.615066
vt 0.856357 0.603575
vt 0.856747 0.612250
vt 0.744163 0.622543
vt 0.721793 0.622543
vt 0.732978 0.622543
vt 0.824180 0.602011
vt 0.719171 0.602185
vt 0.831946 0.615066
vt 0.824180 0.612250
vt 0.783457 0.603316
vt 0.791613 0.604567
vn -0.4785 0.0197 0.8778
vn -0.4927 0.1343 0.8598
vn -0.1598 0.7748 0.6117
vn -0.2937 0.0011 0.9559
vn -0.3683 0.0110 0.9296
vn -0.2604 0.3858 -0.8851
vn -0.5092 0.6948 -0.5079
vn -0.8632 -0.5012 -0.0609
vn -0.5062 -0.3375 0.7936
vn -0.7690 -0.3757 -0.5171
vn -0.2983 -0.0073 -0.9544
vn -0.7926 -0.0044 -0.6098
vn 0.4142 -0.0027 -0.9102
vn -0.5711 -0.2959 -0.7657
vn -0.3209 0.0069 -0.9471
vn -0.5408 0.0244 0.8408
vn -0.8937 -0.0224 -0.4481
vn -0.5588 -0.1401 0.8174
vn -0.5103 0.0052 -0.8600
vn 0.4329 -0.0053 -0.9014
vn 0.9641 -0.1051 -0.2437
vn 0.8985 -0.0123 0.4389
vn 0.4375 0.1088 0.8926
vn 0.4247 -0.0075 0.9053
vn 0.1594 -0.0062 0.9872
vn 0.4546 0.6092 0.6498
vn -0.9866 0.0197 0.1621
vn 0.3531 -0.5649 -0.7458
vn 0.4274 -0.0027 -0.9041
vn 0.4835 -0.1374 -0.8645
vn 0.9045 -0.1088 -0.4123
vn 0.8829 -0.0164 0.4693
vn 0.9338 0.1587 0.3207
vn 0.5390 0.1863 -0.8215
vn 0.8015 0.0047 0.5979
vn 0.9133 -0.0169 0.4069
vn 0.4547 -0.0027 -0.8907
vn 0.9005 -0.0166 0.4344
vn 0.4130 0.7936 0.4468
vn 0.9223 -0.1573 0.3529
vn -0.3617 -0.5901 0.7218
vn 0.1318 -0.8275 0.5458
vn -0.4318 -0.0211 0.9017
vn -0.0253 -0.2923 -0.9560
vn 0.4546 0.6091 0.6499
vn -0.9866 0.0207 0.1618
vn 0.1596 -0.0059 0.9872
vn -0.2589 0.0111 0.9658
vn 0.2786 0.0867 0.9565
vn -0.3210 0.0066 -0.9470
vn 0.5831 -0.8035 0.1198
vn 0.2543 -0.6129 0.7481
vn 0.0644 0.8207 -0.5677
vn -0.1768 -0.6090 0.7732
vn 0.9459 0.0380 0.3222
vn -0.1570 0.1838 0.9703
vn -0.7439 -0.5576 -0.3684
vn 0.2785 0.3731 0.8850
vn 0.2862 0.3835 0.8781
vn 0.2785 0.3732 0.8850
vn 0.7866 0.4471 0.4258
vn 0.4222 0.8090 0.4090
vn 0.7678 0.6372 -0.0667
vn 0.1871 0.8414 -0.5070
vn 0.6718 0.6558 -0.3445
vn -0.5387 0.5657 -0.6243
vn 0.1870 0.8414 -0.5070
vn 0.5933 0.1973 -0.7804
vn -0.1896 0.9249 0.3297
vn 0.7245 -0.5962 0.3459
s 1
f 1/1/1 2/2/2 3/3/3
f 4/4/4 2/5/2 5/6/5
f 3/7/3 6/8/6 7/9/7
f 8/10/8 9/11/9 10/12/10
f 11/13/11 10/14/10 12/15/12
f 13/16/13 14/17/14 15/18/15
f 2/5/2 16/19/16 6/20/6
f 17/21/17 18/22/18 8/23/8
f 19/24/19 8/25/8 11/26/11
f 20/27/20 21/28/21 22/29/22
f 23/30/23 24/31/24 25/32/25
f 16/33/16 26/34/26 27/35/27
f 22/29/22 28/36/28 20/27/20
f 29/37/29 30/38/30 31/39/31
f 29/40/29 20/27/20 13/41/13
f 32/42/32 33/43/33 24/44/24
f 24/44/24 34/45/34 35/46/35
f 36/47/36 30/48/30 37/49/37
f 36/50/36 33/51/33 38/52/38
f 39/53/39 34/54/34 33/55/33
f 31/56/31 40/57/40 21/58/21
f 41/59/41 42/60/42 43/61/43
f 14/62/14 42/63/42 44/64/44
f 27/35/27 45/65/45 46/66/46
f 25/67/25 47/68/26 48/69/47
f 4/70/4 48/71/47 49/72/48
f 50/73/49 25/32/25 48/71/47
f 51/74/50 17/75/17 19/24/19
f 15/18/15 44/76/44 51/74/50
f 46/77/46 51/74/50 27/78/27
f 27/78/27 19/24/19 16/79/16
f 52/80/51 42/81/42 53/82/52
f 43/61/43 50/73/49 4/70/4
f 40/83/40 38/52/38 21/84/21
f 39/85/39 37/49/37 54/86/53
f 22/29/22 38/87/38 32/42/32
f 34/45/34 13/41/13 35/46/35
f 34/88/34 37/89/37 29/37/29
f 53/90/52 32/91/32 23/30/23
f 6/92/6 19/24/19 11/26/11
f 35/93/35 15/18/15 46/77/46
f 6/94/6 12/15/12 7/95/7
f 18/22/18 4/4/4 5/6/5
f 9/96/9 5/97/5 1/1/1
f 55/98/54 56/99/55 57/100/56
f 42/101/42 57/102/56 50/103/49
f 57/104/56 23/105/23 50/106/49
f 56/107/55 53/108/52 23/109/23
f 28/110/28 58/111/41 59/112/57
f 60/113/28 41/114/41 61/115/57
f 42/116/42 60/117/28 44/118/44
f 58/119/41 22/120/22 53/90/52
f 61/121/57 43/122/43 17/21/17
f 20/123/20 59/124/57 14/17/14
f 44/76/44 61/125/57 17/75/17
f 59/126/57 53/127/52 14/128/14
f 35/129/35 62/130/58 24/131/24
f 48/69/47 63/132/59 49/133/48
f 49/133/48 64/134/60 16/33/16
f 24/131/24 65/135/45 25/67/25
f 46/66/46 66/136/59 35/129/35
f 67/137/61 68/138/62 69/139/63
f 65/140/45 70/141/63 45/142/45
f 66/143/59 70/141/63 71/144/62
f 66/143/59 72/145/64 62/146/58
f 65/140/45 72/145/64 73/147/65
f 71/148/62 74/149/66 72/150/64
f 63/151/59 69/152/63 64/153/60
f 26/154/26 69/152/63 68/155/62
f 26/154/26 75/156/67 47/157/26
f 63/151/59 75/156/67 76/158/65
f 77/159/64 78/160/68 79/161/65
f 47/157/26 80/162/63 26/154/26
f 45/142/45 80/162/63 81/163/62
f 45/142/45 77/164/64 65/140/45
f 47/157/26 77/164/64 79/165/65
f 82/166/68 83/167/69 84/168/61
f 85/169/68 86/170/69 67/171/61
f 78/172/68 87/173/69 88/174/61
f 78/172/68 80/162/63 79/165/65
f 72/175/64 82/176/68 73/177/65
f 68/178/62 89/179/66 75/180/67
f 88/181/61 81/182/62 80/183/63
f 82/166/68 70/141/63 73/147/65
f 75/184/67 85/185/68 76/186/65
f 81/187/62 90/188/66 77/189/64
f 84/190/61 71/191/62 70/192/63
f 85/169/68 69/152/63 76/158/65
f 12/193/12 3/194/3 7/195/7
f 1/196/1 10/197/10 9/198/9
f 1/1/1 5/97/5 2/2/2
f 4/4/4 49/199/48 2/5/2
f 3/7/3 2/200/2 6/8/6
f 8/10/8 18/201/18 9/11/9
f 11/13/11 8/202/8 10/14/10
f 13/16/13 20/123/20 14/17/14
f 2/5/2 49/199/48 16/19/16
f 17/21/17 43/122/43 18/22/18
f 19/24/19 17/75/17 8/25/8
f 20/27/20 31/203/31 21/28/21
f 23/30/23 32/91/32 24/31/24
f 16/33/16 64/134/60 26/34/26
f 22/29/22 91/204/70 28/36/28
f 29/37/29 37/89/37 30/38/30
f 29/40/29 31/203/31 20/27/20
f 32/42/32 38/87/38 33/43/33
f 24/44/24 33/43/33 34/45/34
f 36/47/36 40/57/40 30/48/30
f 36/50/36 39/205/39 33/51/33
f 39/53/39 54/206/53 34/54/34
f 31/56/31 30/48/30 40/57/40
f 41/59/41 92/207/70 42/60/42
f 14/62/14 53/208/52 42/63/42
f 27/35/27 26/34/26 45/65/45
f 25/67/25 65/135/45 47/68/26
f 4/70/4 50/73/49 48/71/47
f 50/73/49 23/30/23 25/32/25
f 51/74/50 44/76/44 17/75/17
f 15/18/15 14/17/14 44/76/44
f 46/77/46 15/18/15 51/74/50
f 27/78/27 51/74/50 19/24/19
f 52/80/51 55/209/54 42/81/42
f 43/61/43 42/60/42 50/73/49
f 40/83/40 36/50/36 38/52/38
f 39/85/39 36/47/36 37/49/37
f 22/29/22 21/28/21 38/87/38
f 34/45/34 29/40/29 13/41/13
f 34/88/34 54/210/53 37/89/37
f 53/90/52 22/120/22 32/91/32
f 6/92/6 16/79/16 19/24/19
f 35/93/35 13/16/13 15/18/15
f 6/94/6 11/13/11 12/15/12
f 18/22/18 43/122/43 4/4/4
f 9/96/9 18/211/18 5/97/5
f 55/98/54 52/212/51 56/99/55
f 42/101/42 55/213/54 57/102/56
f 57/104/56 56/214/55 23/105/23
f 56/107/55 52/215/51 53/108/52
f 28/110/28 91/216/70 58/111/41
f 60/113/28 92/217/70 41/114/41
f 42/116/42 92/218/70 60/117/28
f 58/119/41 91/219/70 22/120/22
f 61/121/57 41/220/41 43/122/43
f 20/123/20 28/221/28 59/124/57
f 44/76/44 60/222/28 61/125/57
f 59/126/57 58/223/41 53/127/52
f 35/129/35 66/136/59 62/130/58
f 48/69/47 47/68/26 63/132/59
f 49/133/48 63/132/59 64/134/60
f 24/131/24 62/130/58 65/135/45
f 46/66/46 45/65/45 66/136/59
f 67/137/61 86/224/69 68/138/62
f 65/140/45 73/147/65 70/141/63
f 66/143/59 45/142/45 70/141/63
f 66/143/59 71/144/62 72/145/64
f 65/140/45 62/146/58 72/145/64
f 71/148/62 83/225/69 74/149/66
f 63/151/59 76/158/65 69/152/63
f 26/154/26 64/153/60 69/152/63
f 26/154/26 68/155/62 75/156/67
f 63/151/59 47/157/26 75/156/67
f 77/159/64 90/226/66 78/160/68
f 47/157/26 79/165/65 80/162/63
f 45/142/45 26/154/26 80/162/63
f 45/142/45 81/163/62 77/164/64
f 47/157/26 65/140/45 77/164/64
f 82/166/68 74/227/66 83/167/69
f 85/169/68 89/228/66 86/170/69
f 78/172/68 90/229/66 87/173/69
f 78/172/68 88/174/61 80/162/63
f 72/175/64 74/230/66 82/176/68
f 68/178/62 86/231/69 89/179/66
f 88/181/61 87/232/69 81/182/62
f 82/166/68 84/168/61 70/141/63
f 75/184/67 89/233/66 85/185/68
f 81/187/62 87/234/69 90/188/66
f 84/190/61 83/235/69 71/191/62
f 85/169/68 67/171/61 69/152/63
f 12/193/12 1/196/1 3/194/3
f 1/196/1 12/193/12 10/197/10
